<svg xmlns="http://www.w3.org/2000/svg" width="21" height="23" fill="#333" viewBox="0 0 21 23"><path d="M7.78 3.83c.36-1.106 1.924-1.106 2.283 0l1.284 3.95a1.2 1.2 0 0 0 1.14.828h4.154c1.163 0 1.646 1.488.706 2.171l-3.36 2.442a1.2 1.2 0 0 0-.437 1.341l1.284 3.95c.36 1.106-.906 2.025-1.847 1.342l-3.36-2.441a1.2 1.2 0 0 0-1.41 0l-3.36 2.441c-.941.683-2.207-.236-1.847-1.342l1.283-3.95a1.2 1.2 0 0 0-.436-1.341l-3.36-2.442c-.94-.683-.457-2.17.705-2.17h4.154a1.2 1.2 0 0 0 1.141-.83L7.78 3.83Z"/></svg>